<svg width="24" height="24" viewBox="0 0 24 24" fill="none" xmlns="http://www.w3.org/2000/svg"><path class="dashboard-icon" d="M11.2507 14.8657L11.2187 14.9327C11.0408 15.3051 11.1069 15.7637 11.4143 16.0711C11.7216 16.3784 12.1802 16.4445 12.5526 16.2667L12.6197 16.2346L12.6813 16.1929C12.7329 16.1579 12.7822 16.1174 12.8285 16.0711M11.2507 14.8657L12.8285 16.0711M11.2507 14.8657L11.2925 14.8041C11.3274 14.7525 11.368 14.7031 11.4143 14.6569C11.5226 14.5486 11.6484 14.471 11.782 14.4229L11.857 14.396L11.9199 14.3471L17.0297 10.3728L17.1126 10.4557M11.2507 14.8657L17.1126 10.4557M12.8285 16.0711C12.9368 15.9628 13.0144 15.837 13.0624 15.7033L13.0894 15.6284L13.1383 15.5655L17.1126 10.4557M12.8285 16.0711L17.1126 10.4557M3.69068 16.3428C3.44291 15.1584 3.43619 13.9344 3.67293 12.7442C3.94225 11.3902 4.51943 10.1164 5.35982 9.02115C6.20021 7.92593 7.28128 7.03872 8.5194 6.42815C9.75752 5.81757 11.1195 5.5 12.5 5.5C13.8805 5.5 15.2425 5.81757 16.4806 6.42814C17.7187 7.03872 18.7998 7.92593 19.6402 9.02114C20.4806 10.1164 21.0577 11.3902 21.3271 12.7442C21.5638 13.9344 21.5571 15.1584 21.3093 16.3428L20.4385 16.1095C20.6515 15.0588 20.6542 13.9745 20.4444 12.9198C20.202 11.7012 19.6825 10.5547 18.9262 9.56903C18.1698 8.58334 17.1968 7.78485 16.0825 7.23533C14.9682 6.68581 13.7424 6.4 12.5 6.4C11.2576 6.4 10.0318 6.68581 8.91746 7.23533C7.80315 7.78485 6.83019 8.58334 6.07384 9.56903C5.31749 10.5547 4.79803 11.7012 4.55564 12.9198C4.34584 13.9745 4.34849 15.0588 4.56151 16.1095L3.69068 16.3428Z" fill="white" stroke="white"></path></svg>